<svg width="184" height="56" viewBox="0 0 184 56" fill="none" xmlns="http://www.w3.org/2000/svg">
<path d="M166.399 30.4598C165.502 37.5562 158.574 42.5986 150.924 41.7221C143.276 40.8456 137.803 34.3821 138.7 27.2856C139.598 20.1891 146.526 15.1467 154.175 16.0233C161.824 16.8998 167.297 23.3632 166.399 30.4598Z" fill="#F6D34D"/>
<path d="M155.8 3.17383L155.15 8.31362M130.391 26.3333L124.851 25.6985M138.648 12.4558L135.191 8.37259M170.147 16.0654L174.523 12.8799M166.449 45.3001L169.907 49.3833M180.249 32.0468L174.709 31.412M166.399 30.4598C165.502 37.5562 158.574 42.5986 150.924 41.7221C143.276 40.8456 137.803 34.3821 138.7 27.2856C139.598 20.1891 146.526 15.1467 154.175 16.0233C161.824 16.8998 167.297 23.3632 166.399 30.4598Z" stroke="#F6D34D" stroke-width="4.62903" stroke-linecap="round" stroke-linejoin="round"/>
<path d="M8.18615 42.38C7.95253 42.38 7.83568 42.4833 7.83568 42.6898V49.0524C7.83568 49.4655 7.58534 49.672 7.08466 49.672H3.37962C3.14598 49.672 2.98742 49.6323 2.90398 49.5528C2.82053 49.4575 2.77881 49.3145 2.77881 49.1239V32.4907C2.77881 32.1571 2.92067 31.9902 3.20439 31.9902H7.4101C7.6938 31.9902 7.83568 32.1412 7.83568 32.443V38.2575C7.83568 38.5594 7.96917 38.7102 8.23622 38.7102H13.218C13.485 38.7102 13.6185 38.5594 13.6185 38.2575V32.443C13.6185 32.1412 13.7604 31.9902 14.0441 31.9902H18.2498C18.5335 31.9902 18.6754 32.1571 18.6754 32.4907V49.1239C18.6754 49.3145 18.6337 49.4575 18.5502 49.5528C18.4668 49.6323 18.3082 49.672 18.0746 49.672H14.3696C13.8689 49.672 13.6185 49.4655 13.6185 49.0524V42.6898C13.6185 42.4833 13.5017 42.38 13.2681 42.38H8.18615ZM30.4373 49.9103C28.6515 49.9103 27.0911 49.5449 25.7559 48.8141C24.4375 48.0833 23.4194 47.0428 22.7018 45.6924C21.9842 44.3262 21.6253 42.7216 21.6253 40.8788C21.6253 39.02 21.9925 37.4076 22.7268 36.0413C23.4612 34.6751 24.4876 33.6187 25.806 32.872C27.1244 32.1253 28.6682 31.752 30.4373 31.752C32.2231 31.752 33.7668 32.1253 35.0686 32.872C36.387 33.6187 37.4051 34.6751 38.1227 36.0413C38.8571 37.4076 39.2242 39.02 39.2242 40.8788C39.2242 42.7216 38.8654 44.3182 38.1477 45.6685C37.4301 47.0189 36.4121 48.0674 35.0936 48.8141C33.7752 49.5449 32.2231 49.9103 30.4373 49.9103ZM30.4623 46.5741C31.6806 46.5741 32.5568 46.1372 33.0909 45.2634C33.6416 44.3897 33.917 42.952 33.917 40.9503C33.917 38.8691 33.6416 37.3679 33.0909 36.4464C32.5401 35.525 31.6556 35.0643 30.4373 35.0643C29.219 35.0643 28.3261 35.525 27.7586 36.4464C27.2079 37.3679 26.9325 38.8691 26.9325 40.9503C26.9325 42.952 27.2079 44.3897 27.7586 45.2634C28.3094 46.1372 29.2106 46.5741 30.4623 46.5741ZM57.8581 48.9571C57.9416 49.1477 57.9332 49.3145 57.8331 49.4575C57.7497 49.6005 57.6161 49.672 57.4326 49.672H53.1517C52.8346 49.672 52.626 49.521 52.5259 49.2192L50.0225 42.809C49.9224 42.5707 49.672 42.4515 49.2715 42.4515H47.5441C47.4273 42.4515 47.3439 42.4833 47.2938 42.5468C47.2604 42.6104 47.2437 42.666 47.2437 42.7137V49.0285C47.2437 49.4575 46.9934 49.672 46.4927 49.672H42.7626C42.5457 49.672 42.3954 49.6323 42.312 49.5528C42.2286 49.4575 42.1869 49.3145 42.1869 49.1239V32.4907C42.1869 32.1571 42.3287 31.9902 42.6124 31.9902H50.7234C53.0599 31.9902 54.8708 32.4192 56.1558 33.2771C57.4409 34.1349 58.0834 35.3582 58.0834 36.9468C58.0834 37.7253 57.9332 38.4323 57.6328 39.0677C57.3324 39.7032 56.9319 40.2433 56.4312 40.6881C55.9305 41.1171 55.3631 41.4428 54.7289 41.6651C54.5787 41.7287 54.5453 41.8717 54.6288 42.0941L57.8581 48.9571ZM50.398 39.2583C51.1991 39.2583 51.8082 39.0836 52.2255 38.7341C52.6427 38.3687 52.8513 37.8762 52.8513 37.2566C52.8513 36.5736 52.6093 36.0572 52.1254 35.7077C51.658 35.3423 51.0822 35.1596 50.398 35.1596H47.7694C47.419 35.1596 47.2437 35.3026 47.2437 35.5885V38.7817C47.2437 39.0995 47.3689 39.2583 47.6192 39.2583H50.398ZM65.6298 31.9902C65.9133 31.9902 66.0554 32.1412 66.0554 32.443V49.0285C66.0554 49.2668 65.9884 49.4337 65.8551 49.529C65.7381 49.6243 65.5547 49.672 65.3044 49.672H61.5993C61.3657 49.672 61.2071 49.6323 61.1237 49.5528C61.0403 49.4575 60.9985 49.3145 60.9985 49.1239V32.4907C60.9985 32.1571 61.1404 31.9902 61.4241 31.9902H65.6298ZM69.4162 49.672C69.1822 49.672 69.0238 49.6402 68.9406 49.5766C68.8567 49.4972 68.8154 49.3463 68.8154 49.1239V48.1707C68.8154 47.9324 68.8404 47.7576 68.8905 47.6464C68.9406 47.5353 69.0739 47.3366 69.291 47.0507L77.377 35.8745C77.5435 35.6362 77.4772 35.5171 77.1768 35.5171H70.0671C69.8668 35.5171 69.7329 35.4774 69.6666 35.3979C69.5996 35.3185 69.5664 35.1834 69.5664 34.9928V32.443C69.5664 32.1412 69.6997 31.9902 69.967 31.9902H84.2614C84.5449 31.9902 84.687 32.1332 84.687 32.4192V33.5154C84.687 33.6742 84.6532 33.8172 84.5868 33.9443C84.5368 34.0555 84.4448 34.2064 84.3115 34.3971L75.9251 45.8115C75.8581 45.9387 75.8581 46.026 75.9251 46.0737C75.9914 46.1055 76.0834 46.1213 76.2004 46.1213H84.0611C84.3947 46.1213 84.5618 46.2564 84.5618 46.5264V49.1954C84.5618 49.3225 84.5199 49.4337 84.4366 49.529C84.3528 49.6243 84.2113 49.672 84.011 49.672H69.4162ZM95.0742 49.9103C93.288 49.9103 91.7278 49.5449 90.3929 48.8141C89.0742 48.0833 88.0559 47.0428 87.3387 45.6924C86.6208 44.3262 86.2622 42.7216 86.2622 40.8788C86.2622 39.02 86.629 37.4076 87.3637 36.0413C88.0978 34.6751 89.1242 33.6187 90.4429 32.872C91.7609 32.1253 93.3049 31.752 95.0742 31.752C96.8598 31.752 98.4037 32.1253 99.7055 32.872C101.024 33.6187 102.042 34.6751 102.76 36.0413C103.494 37.4076 103.861 39.02 103.861 40.8788C103.861 42.7216 103.502 44.3182 102.785 45.6685C102.067 47.0189 101.049 48.0674 99.7305 48.8141C98.4119 49.5449 96.8598 49.9103 95.0742 49.9103ZM95.0992 46.5741C96.3171 46.5741 97.1933 46.1372 97.7278 45.2634C98.2786 44.3897 98.5539 42.952 98.5539 40.9503C98.5539 38.8691 98.2786 37.3679 97.7278 36.4464C97.1771 35.525 96.2921 35.0643 95.0742 35.0643C93.8557 35.0643 92.9626 35.525 92.3956 36.4464C91.8448 37.3679 91.5694 38.8691 91.5694 40.9503C91.5694 42.952 91.8448 44.3897 92.3956 45.2634C92.9463 46.1372 93.8475 46.5741 95.0992 46.5741ZM122.445 31.9902C122.695 31.9902 122.82 32.1174 122.82 32.3715V49.2668C122.82 49.394 122.77 49.4972 122.67 49.5766C122.57 49.6402 122.445 49.672 122.294 49.672H119.265C119.149 49.672 119.04 49.6561 118.94 49.6243C118.857 49.5925 118.748 49.4972 118.614 49.3383L111.204 39.6158C111.138 39.5205 111.079 39.4808 111.029 39.4966C110.979 39.5125 110.954 39.5602 110.954 39.6396V49.1954C110.971 49.5131 110.787 49.672 110.403 49.672H107.374C107.007 49.672 106.823 49.521 106.823 49.2192V32.4907C106.823 32.1571 106.99 31.9902 107.324 31.9902H110.904C111.104 31.9902 111.254 32.0141 111.354 32.0617C111.455 32.1094 111.563 32.2127 111.68 32.3715L118.339 41.3077C118.456 41.4507 118.548 41.5142 118.614 41.4983C118.698 41.4825 118.739 41.3872 118.739 41.2124V32.443C118.739 32.1412 118.907 31.9902 119.24 31.9902H122.445ZM125.593 32.4907C125.593 32.3477 125.635 32.2285 125.718 32.1332C125.802 32.0379 125.944 31.9902 126.144 31.9902H140.839C141.022 31.9902 141.156 32.0379 141.239 32.1332C141.34 32.2285 141.39 32.3477 141.39 32.4907V35.0166C141.39 35.2867 141.223 35.4217 140.889 35.4217H136.333C136.132 35.4217 136.032 35.5012 136.032 35.66V49.1954C136.032 49.5131 135.89 49.672 135.607 49.672H131.401C131.118 49.672 130.975 49.521 130.975 49.2192V35.7554C130.975 35.533 130.892 35.4217 130.725 35.4217H126.119C125.768 35.4217 125.593 35.2867 125.593 35.0166V32.4907ZM144.202 32.4907C144.202 32.1571 144.344 31.9902 144.628 31.9902H157.721C157.988 31.9902 158.121 32.1412 158.121 32.443V34.9213C158.121 35.3026 157.921 35.4932 157.52 35.4932H149.785C149.434 35.4932 149.259 35.6362 149.259 35.9222V38.6149C149.259 38.9168 149.393 39.0677 149.66 39.0677H154.541C154.859 39.0677 155.017 39.2107 155.017 39.4966V42.1417C155.017 42.2371 154.984 42.3245 154.917 42.4039C154.867 42.4674 154.767 42.4992 154.616 42.4992H149.635C149.384 42.4992 149.259 42.6104 149.259 42.8328V45.8592C149.259 46.0657 149.351 46.169 149.534 46.169H157.871C158.205 46.169 158.371 46.304 158.371 46.5741V49.1954C158.371 49.3225 158.33 49.4337 158.246 49.529C158.163 49.6243 158.03 49.672 157.846 49.672H144.803C144.402 49.672 144.202 49.4893 144.202 49.1239V32.4907Z" fill="#1E3A5F"/>
<path d="M8.34576 9.56641C9.14891 9.56641 9.90832 9.6846 10.6239 9.92088C11.3394 10.1433 11.9819 10.463 12.5515 10.88C13.121 11.2832 13.5883 11.7558 13.9534 12.2979C14.3184 12.84 14.5594 13.4239 14.6762 14.0494C14.72 14.244 14.72 14.3691 14.6762 14.4247C14.647 14.4803 14.574 14.5151 14.4572 14.529L11.96 14.6958C11.8432 14.6958 11.7702 14.6749 11.741 14.6332C11.7118 14.5776 11.6826 14.5012 11.6534 14.4039C11.4781 13.6255 11.1203 12.993 10.58 12.5064C10.0397 12.006 9.32415 11.7558 8.43338 11.7558C7.19213 11.7558 6.2283 12.2145 5.54195 13.1319C4.8556 14.0494 4.51243 15.4951 4.51243 17.469C4.51243 19.4151 4.841 20.8468 5.49814 21.7643C6.16988 22.6817 7.17022 23.1404 8.49909 23.1404C9.40451 23.1404 10.1784 22.9319 10.821 22.5149C11.4636 22.084 11.9893 21.3681 12.3981 20.3673C12.4419 20.2561 12.5734 20.2213 12.7924 20.263L14.6543 20.6383C14.7127 20.6523 14.7639 20.687 14.8077 20.7426C14.8661 20.7982 14.8807 20.9164 14.8515 21.097C14.7639 21.4168 14.6105 21.7712 14.3915 22.1604C14.1724 22.5497 13.8877 22.9389 13.5372 23.3281C13.1867 23.7174 12.7559 24.0718 12.2448 24.3915C11.7483 24.7112 11.1788 24.9684 10.5362 25.163C9.89367 25.3576 9.17082 25.4549 8.36766 25.4549C6.87814 25.4549 5.58576 25.1213 4.49052 24.4541C3.40988 23.7868 2.5775 22.8555 1.99338 21.66C1.40925 20.4507 1.11719 19.0398 1.11719 17.4273C1.11719 15.8009 1.40925 14.4039 1.99338 13.2362C2.5775 12.0685 3.40988 11.165 4.49052 10.5256C5.57116 9.88614 6.85624 9.56641 8.34576 9.56641ZM22.0527 23.4741C22.5638 23.4741 23.0457 23.342 23.4984 23.0779C23.9657 22.8138 24.4111 22.4663 24.8346 22.0353V14.6124C24.8346 14.3344 25.0025 14.1953 25.3384 14.1953H27.3098C27.5727 14.1953 27.7041 14.3274 27.7041 14.5915L27.6603 24.9128C27.6603 25.1352 27.558 25.2464 27.3536 25.2464H25.207C25.0025 25.2464 24.9003 25.1422 24.9003 24.9336V23.8285C24.9003 23.7591 24.8784 23.7174 24.8346 23.7034C24.8054 23.6757 24.7542 23.6965 24.6813 23.766C23.9949 24.3776 23.3451 24.8155 22.7317 25.0796C22.1184 25.3298 21.4832 25.4549 20.826 25.4549C20.1689 25.4549 19.5847 25.3229 19.0736 25.0587C18.5625 24.7947 18.1609 24.4124 17.8689 23.9119C17.5768 23.4115 17.4308 22.8277 17.4308 22.1604V14.6332C17.4308 14.3413 17.5841 14.1953 17.8908 14.1953H19.906C20.1542 14.1953 20.2784 14.3274 20.2784 14.5915V21.7017C20.2784 22.23 20.4317 22.6609 20.7384 22.9945C21.0597 23.3142 21.4978 23.4741 22.0527 23.4741ZM31.2722 25.2464C31.1261 25.2464 31.0239 25.2186 30.9655 25.163C30.9071 25.0935 30.8779 24.9962 30.8779 24.8711V14.5498C30.8779 14.3135 30.9801 14.1953 31.1845 14.1953H33.3093C33.5138 14.1953 33.616 14.2996 33.616 14.5081V15.78C33.616 15.8634 33.6452 15.9191 33.7036 15.9468C33.762 15.9608 33.8278 15.926 33.9007 15.8426C34.222 15.4395 34.5652 15.1059 34.9303 14.8417C35.31 14.5638 35.6897 14.3552 36.0693 14.2162C36.4636 14.0633 36.8433 13.9868 37.2083 13.9868C37.7341 13.9868 37.9969 14.0981 37.9969 14.3204V16.3222C37.9969 16.5168 37.902 16.6002 37.7122 16.5724C37.4931 16.5168 37.2595 16.482 37.0112 16.4681C36.7776 16.4403 36.5585 16.4264 36.3541 16.4264C36.0766 16.4264 35.7773 16.482 35.456 16.5932C35.1493 16.7044 34.8645 16.8643 34.6017 17.0728C34.3388 17.2674 34.1271 17.4829 33.9664 17.7192C33.8059 17.9555 33.7255 18.1987 33.7255 18.449V24.8294C33.7255 25.1074 33.5576 25.2464 33.2217 25.2464H31.2722ZM47.205 16.9268C46.9275 16.5793 46.5624 16.2874 46.1098 16.0511C45.657 15.8148 45.1021 15.6966 44.445 15.6966C43.817 15.6966 43.2913 15.8148 42.8678 16.0511C42.4443 16.2874 42.2326 16.621 42.2326 17.0519C42.2326 17.2604 42.3202 17.462 42.4955 17.6566C42.6707 17.8512 43.0577 18.025 43.6564 18.1779L46.2631 18.8451C47.4021 19.1093 48.2126 19.5263 48.6945 20.0962C49.191 20.6523 49.4393 21.2847 49.4393 21.9936C49.4393 22.7165 49.2202 23.3351 48.7821 23.8494C48.3586 24.3638 47.7599 24.7599 46.9859 25.0379C46.2265 25.3159 45.3577 25.4549 44.3793 25.4549C43.1234 25.4549 42.05 25.2395 41.1593 24.8085C40.2684 24.3638 39.6405 23.8147 39.2755 23.1613C39.2317 23.0779 39.2098 23.0015 39.2098 22.9319C39.2098 22.8485 39.2462 22.7791 39.3193 22.7234L40.6117 22.0979C40.7284 22.0284 40.8234 22.0006 40.8964 22.0145C40.9694 22.0284 41.0278 22.0632 41.0717 22.1187C41.2907 22.4107 41.5389 22.6748 41.8164 22.9111C42.1084 23.1474 42.4589 23.3351 42.8678 23.4741C43.2913 23.6131 43.8024 23.6757 44.4012 23.6617C44.8539 23.6617 45.2627 23.6061 45.6278 23.4949C46.0075 23.3838 46.3069 23.2308 46.5259 23.0362C46.745 22.8277 46.8545 22.5775 46.8545 22.2856C46.8545 22.0076 46.7303 21.7643 46.4821 21.5558C46.2339 21.3473 45.7884 21.1666 45.1459 21.0136L42.9117 20.5132C41.8018 20.263 40.984 19.8877 40.4583 19.3873C39.9472 18.8868 39.6917 18.2613 39.6917 17.5107C39.6917 16.8157 39.8815 16.204 40.2612 15.6758C40.6555 15.1476 41.2103 14.7375 41.9259 14.4456C42.6415 14.1398 43.4884 13.9868 44.4669 13.9868C45.5475 13.9868 46.4821 14.1745 47.2707 14.5498C48.0593 14.9251 48.6361 15.3908 49.0012 15.9468C49.0596 16.0164 49.0961 16.0928 49.1107 16.1762C49.1399 16.2596 49.1034 16.3291 49.0012 16.3847L47.6431 17.0311C47.5555 17.0728 47.4751 17.0867 47.4021 17.0728C47.3291 17.045 47.2634 16.9964 47.205 16.9268ZM57.2026 25.4549C56.0636 25.4549 55.0632 25.2117 54.2017 24.7251C53.3401 24.2386 52.661 23.5714 52.1645 22.7234C51.6826 21.8616 51.4417 20.8816 51.4417 19.7834C51.4417 18.6297 51.6899 17.6219 52.1864 16.76C52.6975 15.8843 53.3839 15.2032 54.2455 14.7166C55.1217 14.2301 56.1147 13.9868 57.2245 13.9868C58.3782 13.9868 59.3858 14.237 60.2474 14.7375C61.1089 15.224 61.7807 15.9051 62.2626 16.7809C62.7447 17.6427 62.9856 18.6366 62.9856 19.7626C62.9856 20.8747 62.7372 21.8616 62.2407 22.7234C61.7588 23.5714 61.087 24.2386 60.2255 24.7251C59.3639 25.2117 58.3563 25.4549 57.2026 25.4549ZM57.2245 23.5992C57.8525 23.5992 58.3782 23.4532 58.8017 23.1613C59.2251 22.8555 59.5464 22.4176 59.7655 21.8477C59.9845 21.2639 60.0941 20.5549 60.0941 19.7209C60.0941 18.873 59.9772 18.157 59.7436 17.5732C59.5245 16.9894 59.2032 16.5446 58.7798 16.2387C58.3563 15.933 57.8379 15.78 57.2245 15.78C56.6258 15.78 56.1074 15.933 55.6693 16.2387C55.2312 16.5446 54.8953 16.9894 54.6617 17.5732C54.4426 18.157 54.3331 18.873 54.3331 19.7209C54.3331 20.5549 54.4426 21.2639 54.6617 21.8477C54.8953 22.4176 55.2312 22.8555 55.6693 23.1613C56.1074 23.4532 56.6258 23.5992 57.2245 23.5992Z" fill="#1E3A5F"/>
</svg>
