<svg width="23" height="24" viewBox="0 0 23 24" fill="none" xmlns="http://www.w3.org/2000/svg">
<path d="M13.5003 4.67092C11.0152 2.09156 6.98515 2.09156 4.5001 4.67092C2.01505 7.25027 2.01505 11.4333 4.5001 14.0127C6.70153 16.2977 10.1158 16.5556 12.5927 14.7921L15.6909 18.3892C16.2176 19.0032 17.1333 19.0284 17.6925 18.4481L17.7735 18.3639C18.3326 17.7836 18.3083 16.8331 17.7168 16.2864L14.2512 13.0707C15.9529 10.4969 15.7017 6.95589 13.5003 4.67092ZM11.9552 12.409C10.3238 14.1024 7.67664 14.1024 6.04515 12.409C4.41366 10.7156 4.41366 7.96801 6.04515 6.2746C7.67664 4.5812 10.3238 4.5812 11.9552 6.2746C13.5894 7.97081 13.5867 10.7156 11.9552 12.409Z" fill="#ACB1C6"/>
</svg>
